<?xml version="1.0" ?><svg id="Layer_2" style="enable-background:new 0 0 1000 1000;" version="1.1" viewBox="0 0 1000 1000" xml:space="preserve" xmlns="http://www.w3.org/2000/svg" xmlns:xlink="http://www.w3.org/1999/xlink"><path d="M152.331,566.774c3.117,19.486,13.708,81.784,44.57,119.353  c10.614,12.921,26.459,20.405,43.18,20.405h539.447c14.998,0,29.348-6.118,39.732-16.939l26.313-27.419  c4.452-4.64,1.746-12.372-4.628-13.223l-333.183-44.488c-26.027-3.475-51.354-10.985-75.069-22.259  c-35.261-16.763-73.855-25.097-112.742-24.447c-20.029,0.335-40.059,0.689-60.091,0.569l-100.419-0.604  C154.889,558.1,151.609,562.264,152.331,566.774z M346.356,595.047h25c4.694,0,8.5,3.806,8.5,8.5c0,4.694-3.806,8.5-8.5,8.5h-25  c-4.694,0-8.5-3.806-8.5-8.5C337.856,598.853,341.662,595.047,346.356,595.047z M276.856,595.047h25c4.694,0,8.5,3.806,8.5,8.5  c0,4.694-3.806,8.5-8.5,8.5h-25c-4.694,0-8.5-3.806-8.5-8.5C268.356,598.853,272.162,595.047,276.856,595.047z M207.356,595.047h25  c4.694,0,8.5,3.806,8.5,8.5c0,4.694-3.806,8.5-8.5,8.5h-25c-4.694,0-8.5-3.806-8.5-8.5  C198.856,598.853,202.662,595.047,207.356,595.047z" style="fill:#231F20;"/><path d="M482.856,302.038v280.32c5.66,1.44,11.37,2.68,17.14,3.7v-284.02c0-2.37-0.96-4.51-2.51-6.06  c-1.55-1.55-3.689-2.51-6.06-2.51C486.696,293.467,482.856,297.297,482.856,302.038z" style="fill:#231F20;"/><path d="M516.133,588.547l217.46,29.03c-107.55-196.16-184.949-286.73-217.46-298.75V588.547z" style="fill:#231F20;"/><path d="M317.227,540.797l2.439-0.04c1.5-0.02,3-0.03,4.5-0.03c39.82,0,79.87,9.03,115.82,26.12  c8.71,4.14,17.63,7.73,26.74,10.76v-258.78c-27.95,10.33-89.08,78.72-174.021,222.35  C300.946,541.067,309.156,540.938,317.227,540.797z" style="fill:#231F20;"/></svg>