<?xml version="1.0" ?><svg id="Layer_2" style="enable-background:new 0 0 1000 1000;" version="1.1" viewBox="0 0 1000 1000" xml:space="preserve" xmlns="http://www.w3.org/2000/svg" xmlns:xlink="http://www.w3.org/1999/xlink"><circle cx="225.928" cy="483.898" r="20.67" style="fill:#231F20;"/><path d="M167.038,410.238h5.77l-9.17,53c-4.08,23.58-0.85,47.84,9.26,69.53l2.69,5.78  c3.06,6.56,9.36,11,16.56,11.67l192.03,17.83l111.22-111.22c-74.42-0.29-148.83-7.52-222.23-21.74h-0.01  c-15.56-3.02-28.79-13.2-35.7-27.47c-4.19-8.68-10.69-15.78-18.54-20.7c-7.85-4.93-17.07-7.69-26.71-7.69h-25.17  c-8.42,0-15.23,6.82-15.23,15.23v0.55C151.808,403.418,158.617,410.238,167.038,410.238z M225.928,446.228  c20.77,0,37.67,16.9,37.67,37.67c0,20.77-16.9,37.67-37.67,37.67s-37.67-16.9-37.67-37.67  C188.258,463.128,205.158,446.228,225.928,446.228z" style="fill:#231F20;"/><path d="M832.252,379.229h-5.061h-19.399c-19.282,0-36.865,11.029-45.259,28.388v0  c-6.902,14.274-20.134,24.456-35.7,27.471h0c-50.225,9.727-100.92,16.176-151.769,19.382L456.657,572.877  c51.239,1.862,102.567,0.431,153.666-4.315l197.521-18.345c7.202-0.669,13.508-5.111,16.563-11.667  c11.861-25.454,15.652-53.927,10.865-81.597l-8.081-46.719h5.499c8.81,0,15.904-7.349,15.485-16.252  C847.782,385.644,840.6,379.229,832.252,379.229z" style="fill:#231F20;"/><path d="M604.924,410.625l79.955-70.646c6.411-5.665,6.717-15.563,0.667-21.613l-13.033-13.032  c-6.049-6.05-15.948-5.744-21.613,0.667l-70.646,79.955c-3.327,3.766-4.397,8.771-3.286,13.341L390.176,586.09  c-4.57-1.112-9.576-0.042-13.341,3.285l-79.955,70.646c-6.411,5.665-6.717,15.563-0.668,21.613l13.033,13.032  c6.05,6.05,15.948,5.744,21.613-0.667l70.646-79.955c3.327-3.766,4.397-8.771,3.285-13.341L591.582,413.91  C596.153,415.022,601.158,413.952,604.924,410.625z" style="fill:#231F20;"/></svg>