<?xml version="1.0" ?><svg id="Layer_2" style="enable-background:new 0 0 1000 1000;" version="1.1" viewBox="0 0 1000 1000" xml:space="preserve" xmlns="http://www.w3.org/2000/svg" xmlns:xlink="http://www.w3.org/1999/xlink"><path d="M843.504,691.708c-12.725,1.768-32.956,4.417-57.812,7.112v-38.275c0-4.92-4-8.91-8.92-8.91h-43.66  c-4.93,0-8.92,3.99-8.92,8.91v43.988c-7.681,0.589-15.523,1.141-23.482,1.642v-5.63c0-4.92-4-8.91-8.92-8.91h-13.33v-75.618  c35.153-8.16,68.491-12.57,84.273-14.387c4.15-0.478,6.328-5.171,4.006-8.644c-20-29.925-31.374-73.01-37.712-116.343  c-10.87-74.312-73.246-130.159-148.28-133.342c-0.276-0.012-0.546-0.024-0.81-0.036c-3.67-0.167-6.482,3.184-5.715,6.776  c1.773,8.297,3.302,16.798,4.617,25.44l-18.331,1.864v-72.381c0-4.694-3.806-8.5-8.5-8.5c-4.694,0-8.5,3.806-8.5,8.5v364.6h-16.083  V257.464c0-4.694-3.806-8.5-8.5-8.5s-8.5,3.806-8.5,8.5v72.381l-25.862-2.63c1.328-9.22,2.911-18.278,4.794-27.087  c0.708-3.312-1.903-6.385-5.286-6.231c-10.113,0.461-30.607,0.725-55.055-2.607v-53.823c0-4.694-3.806-8.5-8.5-8.5  s-8.5,3.806-8.5,8.5v50.992c-16.87-3.335-34.804-8.517-52.032-16.493c-3.518-1.629-7.512,1.021-7.342,4.894  c1.61,36.635,4.65,179.239-41.003,247.555c-2.143,3.207-0.131,7.544,3.701,7.985c17.387,2.002,57.835,7.411,96.676,18.041v109.392  c-17.933-7.059-39.115-12.867-61.583-17.642l1.264-7.435c1.598-9.405-4.752-18.333-14.157-19.931l-30.558-5.193v-32.524  c25.11,7.26,49.01,16.78,64.9,29.04c3.68,2.84,8.94-0.25,8.25-4.85c-1.5-10-3.52-24.56-5.49-42.25c-20.64-4.26-41.8-7.52-61.25-9.76  c-2.25-0.26-4.41-0.85-6.41-1.73c-4.87-2.13-8.84-5.97-11.16-10.97c-3.27-7.07-2.64-15.15,1.68-21.62  c3.45-5.17,6.61-10.84,9.48-16.91c24.13-50.9,28.95-130.17,29.33-179.84c-8.98-0.68-18.9-1.83-29.33-3.66v-57.09  c0-4.7-3.81-8.5-8.5-8.5c-2.35,0-4.47,0.95-6.01,2.49c-1.54,1.53-2.49,3.66-2.49,6.01v53.56c-13.53-3.27-27.48-7.81-40.99-14.07  c-3.52-1.63-7.51,1.02-7.34,4.89c1.61,36.64,4.65,179.24-41.01,247.56c-2.14,3.21-0.13,7.54,3.7,7.98  c15.75,1.81,50.4,6.42,85.64,15.16v34.194l-35.906-6.102c-9.424-1.602-18.348,4.73-19.947,14.135l-1.826,10.744  c-33.715-2.98-61.906-4.279-76.364-4.8c-4.316-0.156-7.014,4.6-4.683,8.236c8.571,13.374,24.321,40.595,30.354,68.374  c4.936,22.73,14.069,44.337,26.679,63.882l0,0c3.952,6.125,10.743,9.826,18.032,9.826h570.538c8.486,0,16.164-5.001,19.614-12.754  c6.871-15.441,19.322-41.439,32.033-58.078C851.387,696.43,848.206,691.055,843.504,691.708z M510.426,669.565h-22.191  c-9.56,0-17.297,7.738-17.297,17.278v3.826c-10.01-3.753-18.7-8.188-25.749-13.397c-4.721-3.49-10.155-6.765-16.173-9.843V555.49  c20.964,6.767,40.319,15.219,53.861,25.67c3.681,2.841,8.94-0.258,8.25-4.857c-1.568-10.44-3.696-25.839-5.745-44.584l25.045,2.547  V669.565z M510.426,517.178l-26.805-2.726c-4.534-47.888-7.623-111.401-1.191-170.367l27.996,2.847V517.178z M560.509,394.435  l20.609-2.096c6.834,57.585,5.011,119.712,1.027,170.141l-21.636,2.201V394.435z M661.46,691.636h-13.33  c-4.93,0-8.92,3.99-8.92,8.91v8.225c-16.485,0.315-32.951,0.289-49.018-0.192v-21.735c0-9.54-7.756-17.278-17.297-17.278h-12.386  v-87.798l20.155-2.049c-2.775,29.927-6.106,54.449-8.364,69.48c-0.748,4.978,4.946,8.334,8.932,5.258  c19.299-14.895,49.495-26.044,80.229-34.216V691.636z" style="fill:#231F20;"/></svg>