<svg width="49" height="48" viewBox="0 0 49 48" fill="none" xmlns="http://www.w3.org/2000/svg">
<path d="M15.9258 32.75C24.7229 32.75 31.8508 25.5677 31.8508 16.7083C31.8508 7.84896 24.7229 0.666672 15.9258 0.666672C7.12881 0.666672 0.000837934 7.84896 0.000837934 16.7083C0.000837934 20.2266 1.12631 23.4805 3.03271 26.1328C2.76474 26.9896 2.36662 27.7461 1.94553 28.3841C1.57803 28.9492 1.20287 29.3867 0.927244 29.6875C0.789432 29.8333 0.674588 29.9518 0.598025 30.0247C0.559744 30.0612 0.529119 30.0885 0.513807 30.0977L0.498494 30.1159C0.0774004 30.4896 -0.10635 31.1458 0.0620879 31.7383C0.230525 32.3307 0.697557 32.75 1.22584 32.75C2.8949 32.75 4.57928 32.2396 5.98037 31.6107C6.68474 31.2917 7.34318 30.9362 7.9174 30.5716C10.2679 31.957 13.0011 32.75 15.9258 32.75ZM34.3008 16.7083C34.3008 26.944 26.7135 34.655 17.7251 35.5755C19.5855 42.3568 25.7565 47.3333 33.0758 47.3333C36.0005 47.3333 38.7338 46.5404 41.0919 45.155C41.6661 45.5195 42.3169 45.875 43.0213 46.194C44.4224 46.8229 46.1068 47.3333 47.7758 47.3333C48.3041 47.3333 48.7788 46.9232 48.9396 46.3216C49.1004 45.7201 48.9243 45.0638 48.4955 44.6901L48.4802 44.6719C48.4649 44.6536 48.4343 44.6354 48.396 44.599C48.3194 44.526 48.2046 44.4167 48.0668 44.2617C47.7911 43.9609 47.416 43.5234 47.0485 42.9583C46.6274 42.3203 46.2293 41.5547 45.9613 40.707C47.8677 38.0638 48.9932 34.8099 48.9932 31.2826C48.9932 22.8242 42.493 15.888 34.2472 15.2865C34.2779 15.7513 34.2932 16.2253 34.2932 16.6992L34.3008 16.7083Z" fill="#360808"/>
</svg>
