<svg width="49" height="50" viewBox="0 0 49 50" fill="none" xmlns="http://www.w3.org/2000/svg">
<path d="M15.3125 7.66666C17.0064 7.66666 18.375 6.10259 18.375 4.16666C18.375 2.23072 17.0064 0.666656 15.3125 0.666656H9.1875C4.11523 0.666656 0 5.36978 0 11.1667V39.1667C0 44.9635 4.11523 49.6667 9.1875 49.6667H15.3125C17.0064 49.6667 18.375 48.1026 18.375 46.1667C18.375 44.2307 17.0064 42.6667 15.3125 42.6667H9.1875C7.49355 42.6667 6.125 41.1026 6.125 39.1667V11.1667C6.125 9.23072 7.49355 7.66666 9.1875 7.66666H15.3125ZM48.2822 27.0698C48.7416 26.5776 49 25.8885 49 25.1667C49 24.4448 48.7416 23.7557 48.2822 23.2635L34.501 8.38853C33.8311 7.66666 32.8549 7.46978 32.0127 7.88541C31.1705 8.30103 30.625 9.25259 30.625 10.2917V18.1667H18.375C16.6811 18.1667 15.3125 19.7307 15.3125 21.6667V28.6667C15.3125 30.6026 16.6811 32.1667 18.375 32.1667H30.625V40.0417C30.625 41.0917 31.1705 42.0323 32.0127 42.4479C32.8549 42.8635 33.8311 42.6667 34.501 41.9448L48.2822 27.0698Z" fill="#360808"/>
</svg>
