<svg width="145" height="133" viewBox="0 0 145 133" fill="none" xmlns="http://www.w3.org/2000/svg">
<g clip-path="url(#clip0_43_455)" filter="url(#filter0_d_43_455)">
<path d="M19.2222 0C10.8262 0 4 7.00684 4 15.625V85.9375C4 94.5557 10.8262 101.562 19.2222 101.562H61.0833L58.5384 109.375H42.0556C37.8457 109.375 34.4444 112.866 34.4444 117.188C34.4444 121.509 37.8457 125 42.0556 125H102.944C107.154 125 110.556 121.509 110.556 117.188C110.556 112.866 107.154 109.375 102.944 109.375H86.4616L83.9167 101.562H125.778C134.174 101.562 141 94.5557 141 85.9375V15.625C141 7.00684 134.174 0 125.778 0H19.2222ZM125.778 15.625V70.3125H19.2222V15.625H125.778Z" fill="#360808"/>
</g>
<defs>
<filter id="filter0_d_43_455" x="0" y="0" width="145" height="133" filterUnits="userSpaceOnUse" color-interpolation-filters="sRGB">
<feFlood flood-opacity="0" result="BackgroundImageFix"/>
<feColorMatrix in="SourceAlpha" type="matrix" values="0 0 0 0 0 0 0 0 0 0 0 0 0 0 0 0 0 0 127 0" result="hardAlpha"/>
<feOffset dy="4"/>
<feGaussianBlur stdDeviation="2"/>
<feComposite in2="hardAlpha" operator="out"/>
<feColorMatrix type="matrix" values="0 0 0 0 0 0 0 0 0 0 0 0 0 0 0 0 0 0 0.25 0"/>
<feBlend mode="normal" in2="BackgroundImageFix" result="effect1_dropShadow_43_455"/>
<feBlend mode="normal" in="SourceGraphic" in2="effect1_dropShadow_43_455" result="shape"/>
</filter>
<clipPath id="clip0_43_455">
<rect width="137" height="125" fill="white" transform="translate(4)"/>
</clipPath>
</defs>
</svg>
