<svg width="49" height="56" viewBox="0 0 49 56" fill="none" xmlns="http://www.w3.org/2000/svg">
<path d="M24.5 56C38.0324 56 49 43.4656 49 28C49 12.5344 38.0324 0 24.5 0C10.9676 0 0 12.5344 0 28C0 43.4656 10.9676 56 24.5 56ZM16.2504 18.0797C17.0064 15.6406 19.0354 14 21.3035 14H26.883C30.223 14 32.9219 17.0953 32.9219 20.9016C32.9219 23.3734 31.7639 25.6594 29.8881 26.8953L26.7969 28.9187C26.7777 30.3406 25.7537 31.5 24.5 31.5C23.2271 31.5 22.2031 30.3297 22.2031 28.875V27.3984C22.2031 26.4578 22.6434 25.5937 23.3611 25.1234L27.6008 22.3453C28.0506 22.05 28.3281 21.5031 28.3281 20.9125C28.3281 19.9937 27.6773 19.2609 26.883 19.2609H21.3035C20.9781 19.2609 20.691 19.4906 20.5857 19.8406L20.5475 19.9719C20.1264 21.3391 18.8057 22.05 17.6189 21.5687C16.4322 21.0875 15.8006 19.5781 16.2217 18.2219L16.26 18.0906L16.2504 18.0797ZM27.5625 38.5C27.5625 40.4359 26.1939 42 24.5 42C22.8061 42 21.4375 40.4359 21.4375 38.5C21.4375 36.5641 22.8061 35 24.5 35C26.1939 35 27.5625 36.5641 27.5625 38.5Z" fill="#360808"/>
</svg>
