<svg width="49" height="52" viewBox="0 0 49 52" fill="none" xmlns="http://www.w3.org/2000/svg">
<path d="M34.0278 0.333332H14.9722C12.7179 0.333332 10.8804 2.51901 10.9655 5.16588C10.9825 5.69726 10.9995 6.22864 11.025 6.75H2.04167C0.910243 6.75 0 7.82279 0 9.15625C0 18.4404 2.84983 24.8971 6.67795 29.2785C10.4465 33.5997 15.0403 35.7754 18.426 36.8783C20.4167 37.5299 21.7778 39.485 21.7778 41.4501C21.7778 43.5456 20.3316 45.25 18.5536 45.25H16.3333C14.8276 45.25 13.6111 46.6837 13.6111 48.4583C13.6111 50.2329 14.8276 51.6667 16.3333 51.6667H32.6667C34.1724 51.6667 35.3889 50.2329 35.3889 48.4583C35.3889 46.6837 34.1724 45.25 32.6667 45.25H30.4464C28.6684 45.25 27.2222 43.5456 27.2222 41.4501C27.2222 39.485 28.5748 37.5199 30.574 36.8783C33.9682 35.7754 38.562 33.5997 42.3306 29.2785C46.1502 24.8971 49 18.4404 49 9.15625C49 7.82279 48.0898 6.75 46.9583 6.75H37.975C38.0005 6.22864 38.0175 5.70729 38.0346 5.16588C38.1196 2.51901 36.2821 0.333332 34.0278 0.333332ZM4.1599 11.5625H11.3398C12.1139 20.596 13.8238 26.6316 15.7549 30.6721C13.6366 29.5693 11.4333 28.0152 9.52778 25.8296C6.80556 22.7115 4.59375 18.2098 4.1684 11.5625H4.1599ZM39.4807 25.8296C37.5752 28.0152 35.3719 29.5693 33.2536 30.6721C35.1847 26.6316 36.8946 20.596 37.6688 11.5625H44.8486C44.4148 18.2098 42.203 22.7115 39.4892 25.8296H39.4807Z" fill="#360808"/>
</svg>
